<svg xmlns="http://www.w3.org/2000/svg" width="1024" height="1024" viewBox="0 0 1024 1024">
  <defs>
    <linearGradient id="plate" x1="0" y1="0" x2="0" y2="1">
      <stop offset="0" stop-color="#23262b"></stop>
      <stop offset="0.55" stop-color="#141619"></stop>
      <stop offset="1" stop-color="#0a0b0d"></stop>
    </linearGradient>
    <linearGradient id="sheen" x1="0" y1="0" x2="0" y2="1">
      <stop offset="0" stop-color="#ffffff" stop-opacity="0.14"></stop>
      <stop offset="0.35" stop-color="#ffffff" stop-opacity="0"></stop>
    </linearGradient>
    <filter id="drop" x="-20%" y="-20%" width="140%" height="140%">
      <feDropShadow dx="0" dy="22" stdDeviation="26" flood-color="#000000" flood-opacity="0.5"></feDropShadow>
    </filter>
  </defs>
  <g filter="url(#drop)">
    <rect x="100" y="86" width="824" height="824" rx="185" fill="url(#plate)"></rect>
  </g>
  <rect x="100" y="86" width="824" height="824" rx="185" fill="url(#sheen)"></rect>
  <rect x="101.5" y="87.5" width="821" height="821" rx="183.5" fill="none" stroke="#ffffff" stroke-opacity="0.1" stroke-width="3"></rect>
  <g transform="translate(512 500) scale(8.55) translate(-50 -52)">
    <g transform="rotate(-7 50 44)">
      <path d="M50 26 C68 26 78 34 78 44 C78 54 66 60 50 60 C34 60 22 54 22 44 C22 34 32 26 50 26 Z" fill="none" stroke="#4ade80" stroke-width="6.5" stroke-linecap="round" stroke-linejoin="round"></path>
    </g>
    <ellipse cx="41" cy="59" rx="6.2" ry="5" fill="none" stroke="#4ade80" stroke-width="5"></ellipse>
    <path d="M44 63 C50 78 70 82 80 71 C85 65 83 59 77 60" fill="none" stroke="#4ade80" stroke-width="6.5" stroke-linecap="round" stroke-linejoin="round"></path>
  </g>
</svg>